<svg width="43" height="42" viewBox="0 0 43 42" fill="none" xmlns="http://www.w3.org/2000/svg">
<path d="M38.8984 29.2945V8.17198C38.8984 6.07198 37.1834 4.51448 35.1009 4.68948H34.9959C31.3209 5.00448 25.7384 6.87698 22.6234 8.83698L22.3259 9.02948C21.8184 9.34448 20.9784 9.34448 20.4709 9.02948L20.0334 8.76698C16.9184 6.82448 11.3534 4.96948 7.67844 4.67198C5.59594 4.49698 3.89844 6.07198 3.89844 8.15448V29.2945C3.89844 30.9745 5.26344 32.5495 6.94344 32.7595L7.45094 32.8295C11.2484 33.337 17.1109 35.262 20.4709 37.0995L20.5409 37.1345C21.0134 37.397 21.7659 37.397 22.2209 37.1345C25.5809 35.2795 31.4609 33.337 35.2759 32.8295L35.8534 32.7595C37.5334 32.5495 38.8984 30.9745 38.8984 29.2945Z" stroke="#3B1E54" stroke-width="2.5" stroke-linecap="round" stroke-linejoin="round"/>
<path d="M21.3984 9.60791V35.8579" stroke="#3B1E54" stroke-width="2.5" stroke-linecap="round" stroke-linejoin="round"/>
<path d="M13.9609 14.8579H10.0234" stroke="#3B1E54" stroke-width="2.5" stroke-linecap="round" stroke-linejoin="round"/>
<path d="M15.2734 20.1079H10.0234" stroke="#3B1E54" stroke-width="2.5" stroke-linecap="round" stroke-linejoin="round"/>
</svg>
