<svg width="43" height="42" viewBox="0 0 43 42" fill="none" xmlns="http://www.w3.org/2000/svg">
<path d="M17.8984 38.5H24.8984C33.6484 38.5 37.1484 35 37.1484 26.25V15.75C37.1484 7 33.6484 3.5 24.8984 3.5H17.8984C9.14844 3.5 5.64844 7 5.64844 15.75V26.25C5.64844 35 9.14844 38.5 17.8984 38.5Z" stroke="#3B1E54" stroke-width="2.5" stroke-linecap="round" stroke-linejoin="round"/>
<path d="M29.2734 13.2651V15.0151C29.2734 16.4501 28.1009 17.6401 26.6484 17.6401H16.1484C14.7134 17.6401 13.5234 16.4676 13.5234 15.0151V13.2651C13.5234 11.8301 14.6959 10.6401 16.1484 10.6401H26.6484C28.1009 10.6401 29.2734 11.8126 29.2734 13.2651Z" stroke="#3B1E54" stroke-width="2.5" stroke-linecap="round" stroke-linejoin="round"/>
<path d="M14.6366 24.5H14.6569" stroke="#3B1E54" stroke-width="2.5" stroke-linecap="round" stroke-linejoin="round"/>
<path d="M21.3906 24.5H21.4108" stroke="#3B1E54" stroke-width="2.5" stroke-linecap="round" stroke-linejoin="round"/>
<path d="M28.1445 24.5H28.1647" stroke="#3B1E54" stroke-width="2.5" stroke-linecap="round" stroke-linejoin="round"/>
<path d="M14.6366 30.625H14.6569" stroke="#3B1E54" stroke-width="2.5" stroke-linecap="round" stroke-linejoin="round"/>
<path d="M21.3906 30.625H21.4108" stroke="#3B1E54" stroke-width="2.5" stroke-linecap="round" stroke-linejoin="round"/>
<path d="M28.1445 30.625H28.1647" stroke="#3B1E54" stroke-width="2.5" stroke-linecap="round" stroke-linejoin="round"/>
</svg>
