<svg width="43" height="42" viewBox="0 0 43 42" fill="none" xmlns="http://www.w3.org/2000/svg">
<path d="M17.0938 25.7256L19.7188 28.3506L26.7188 21.3506" stroke="#3B1E54" stroke-width="2.5" stroke-linecap="round" stroke-linejoin="round"/>
<path d="M18.3008 10.5H25.3008C28.8008 10.5 28.8008 8.75 28.8008 7C28.8008 3.5 27.0508 3.5 25.3008 3.5H18.3008C16.5508 3.5 14.8008 3.5 14.8008 7C14.8008 10.5 16.5508 10.5 18.3008 10.5Z" stroke="#3B1E54" stroke-width="2.5" stroke-miterlimit="10" stroke-linecap="round" stroke-linejoin="round"/>
<path d="M28.8008 7.03418C34.6283 7.34918 37.5508 9.50168 37.5508 17.4992V27.9992C37.5508 34.9992 35.8008 38.4992 27.0508 38.4992H16.5508C7.80078 38.4992 6.05078 34.9992 6.05078 27.9992V17.4992C6.05078 9.51918 8.97328 7.34918 14.8008 7.03418" stroke="#3B1E54" stroke-width="2.5" stroke-miterlimit="10" stroke-linecap="round" stroke-linejoin="round"/>
</svg>
