<svg width="41" height="41" viewBox="0 0 41 41" fill="none" xmlns="http://www.w3.org/2000/svg">
<rect x="1.41797" y="1.18506" width="39" height="39" rx="19.5" fill="white"/>
<rect x="1.41797" y="1.18506" width="39" height="39" rx="19.5" stroke="#39284A"/>
<path fill-rule="evenodd" clip-rule="evenodd" d="M24.2447 14.0184C23.3596 14.0184 22.6538 14.7112 22.6538 15.5517C22.6538 15.8179 22.7246 16.0694 22.8495 16.2886C22.8576 16.3006 22.8655 16.3129 22.8729 16.3256C22.8783 16.3347 22.8835 16.344 22.8884 16.3533C23.1672 16.7909 23.6679 17.0851 24.2447 17.0851C25.1298 17.0851 25.8356 16.3923 25.8356 15.5517C25.8356 14.7112 25.1298 14.0184 24.2447 14.0184ZM22.1054 17.529C22.6446 18.0776 23.4051 18.4184 24.2447 18.4184C25.8699 18.4184 27.1992 17.1412 27.1992 15.5517C27.1992 13.9622 25.8699 12.6851 24.2447 12.6851C22.6194 12.6851 21.2901 13.9622 21.2901 15.5517C21.2901 15.8397 21.3338 16.1175 21.4149 16.3793L17.293 18.7077C16.7539 18.1592 15.9933 17.8184 15.1538 17.8184C13.5285 17.8184 12.1992 19.0955 12.1992 20.6851C12.1992 22.2746 13.5285 23.5517 15.1538 23.5517C15.9934 23.5517 16.7541 23.2108 17.2933 22.6621L21.4159 24.9876C21.3341 25.2503 21.2901 25.5292 21.2901 25.8184C21.2901 27.4079 22.6194 28.6851 24.2447 28.6851C25.8699 28.6851 27.1992 27.4079 27.1992 25.8184C27.1992 24.2289 25.8699 22.9517 24.2447 22.9517C23.4064 22.9517 22.6469 23.2915 22.1079 23.8386L17.9836 21.5122C18.0647 21.2506 18.1083 20.9729 18.1083 20.6851C18.1083 20.397 18.0647 20.1193 17.9835 19.8575L22.1054 17.529ZM16.51 19.8835C16.5149 19.8928 16.5201 19.9021 16.5255 19.9112C16.533 19.9239 16.5408 19.9362 16.549 19.9482C16.6739 20.1674 16.7447 20.4188 16.7447 20.6851C16.7447 20.9513 16.6739 21.2027 16.549 21.4219C16.5407 21.434 16.5328 21.4465 16.5253 21.4593C16.52 21.4683 16.5149 21.4774 16.51 21.4866C16.2312 21.9242 15.7306 22.2184 15.1538 22.2184C14.2687 22.2184 13.5629 21.5256 13.5629 20.6851C13.5629 19.8445 14.2687 19.1517 15.1538 19.1517C15.7306 19.1517 16.2312 19.4459 16.51 19.8835ZM22.8273 25.1217C22.8467 25.0975 22.8645 25.0716 22.8807 25.0442C22.8943 25.0212 22.9063 24.9978 22.9167 24.974C23.2003 24.5602 23.6869 24.2851 24.2447 24.2851C25.1298 24.2851 25.8356 24.9779 25.8356 25.8184C25.8356 26.6589 25.1298 27.3517 24.2447 27.3517C23.3596 27.3517 22.6538 26.6589 22.6538 25.8184C22.6538 25.5683 22.7162 25.3313 22.8273 25.1217Z" fill="#39284A"/>
</svg>
