<svg width="41" height="41" viewBox="0 0 41 41" fill="none" xmlns="http://www.w3.org/2000/svg">
<rect x="1.41797" y="1.18506" width="39" height="39" rx="19.5" fill="white"/>
<rect x="1.41797" y="1.18506" width="39" height="39" rx="19.5" stroke="#39284A"/>
<path d="M27.2613 15.3344C26.8948 14.97 26.4596 14.681 25.9807 14.4838C25.5017 14.2866 24.9883 14.1851 24.4699 14.1851C23.9514 14.1851 23.438 14.2866 22.9591 14.4838C22.4801 14.681 22.0449 14.97 21.6784 15.3344L20.9178 16.0902L20.1571 15.3344C19.4168 14.5987 18.4127 14.1854 17.3657 14.1854C16.3187 14.1854 15.3146 14.5987 14.5742 15.3344C13.8339 16.07 13.418 17.0677 13.418 18.1081C13.418 19.1484 13.8339 20.1462 14.5742 20.8818L20.9178 27.1851L27.2613 20.8818C27.628 20.5176 27.9189 20.0852 28.1174 19.6093C28.3158 19.1333 28.418 18.6232 28.418 18.1081C28.418 17.5929 28.3158 17.0828 28.1174 16.6069C27.9189 16.1309 27.628 15.6985 27.2613 15.3344Z" stroke="#39284A" stroke-width="1.5" stroke-linecap="round" stroke-linejoin="round"/>
</svg>
