<svg width="38" height="39" viewBox="0 0 38 39" fill="none" xmlns="http://www.w3.org/2000/svg">
<path d="M26.5666 7.93501C24.309 6.48959 21.6927 5.72559 19.0001 5.72559C11.2524 5.72559 4.94922 12.0287 4.94922 19.7764C4.94922 27.5241 11.2524 33.8273 19.0001 33.8273C26.7478 33.8273 33.051 27.5241 33.051 19.7763C33.051 16.609 32.0222 13.6189 30.0758 11.1293C29.815 10.7958 29.3335 10.7368 29 10.9975C28.6664 11.2582 28.6075 11.7399 28.8682 12.0733C30.6018 14.2908 31.5181 16.9545 31.5181 19.7763C31.5181 26.6788 25.9025 32.2944 19 32.2944C12.0975 32.2944 6.48198 26.6788 6.48198 19.7763C6.48198 12.8738 12.0975 7.25828 19 7.25828C21.3991 7.25828 23.7298 7.93864 25.7401 9.22582C26.0965 9.45397 26.5705 9.35028 26.7988 8.99366C27.0271 8.63719 26.923 8.16315 26.5666 7.93501Z" fill="#84689B"/>
<path d="M37.1384 19.7764C37.1384 18.8954 37.3514 17.9195 37.5575 16.9758C37.9196 15.3179 38.294 13.6036 37.6501 12.0508C36.9789 10.4319 35.4713 9.47583 34.0132 8.55121C33.1881 8.02789 32.4088 7.53374 31.8257 6.95061C31.2427 6.36762 30.7484 5.58825 30.2252 4.76316C29.3006 3.30528 28.3446 1.79767 26.7258 1.12636C25.1729 0.482293 23.4586 0.8568 21.8007 1.21884C20.857 1.42502 19.8811 1.6381 19 1.6381C18.119 1.6381 17.1431 1.42502 16.1994 1.21891C14.5415 0.856726 12.8271 0.482515 11.2744 1.12636C9.65551 1.79767 8.69943 3.3052 7.77481 4.76323C7.25149 5.58832 6.75735 6.36769 6.17421 6.95076C5.59122 7.53374 4.81185 8.02804 3.98676 8.55121C2.52888 9.47583 1.02127 10.4318 0.349964 12.0507C-0.294033 13.6034 0.0804011 15.3177 0.44244 16.9758C0.648472 17.9195 0.861628 18.8953 0.861628 19.7764C0.861628 20.6574 0.648546 21.6333 0.44244 22.577C0.0804011 24.2349 -0.293958 25.9493 0.349964 27.5021C1.0212 29.1209 2.5288 30.077 3.98683 31.0016L4.28163 31.1889C4.6384 31.4165 5.11229 31.3118 5.33999 30.955C5.56769 30.5981 5.4629 30.1243 5.10605 29.8966L4.80769 29.707C3.49313 28.8734 2.25145 28.086 1.76584 26.9149C1.30612 25.8063 1.61398 24.3965 1.93995 22.904C2.16335 21.8808 2.39439 20.8228 2.39439 19.7764C2.39439 18.7299 2.16335 17.6719 1.93988 16.6487C1.61391 15.1562 1.30598 13.7464 1.76576 12.6378C2.25137 11.4667 3.49305 10.6793 4.80762 9.84566C5.66685 9.30089 6.55502 8.73765 7.25795 8.03479C7.96088 7.33194 8.52427 6.44354 9.06911 5.58431C9.90274 4.26975 10.6902 3.02807 11.8613 2.54246C12.9699 2.08275 14.3796 2.39068 15.8722 2.71657C16.8953 2.93997 17.9533 3.17102 18.9998 3.17102C20.0463 3.17102 21.1043 2.93997 22.1275 2.7165C23.62 2.39053 25.0299 2.08252 26.1383 2.54238C27.3094 3.028 28.0969 4.26968 28.9305 5.58424C29.4753 6.44332 30.0387 7.33165 30.7416 8.03457C31.4444 8.7375 32.3328 9.30089 33.1921 9.84573C34.5066 10.6794 35.7483 11.4668 36.2339 12.6379C36.6936 13.7464 36.3858 15.1562 36.0598 16.6488C35.8364 17.672 35.6054 18.7299 35.6054 19.7764C35.6054 20.8229 35.8364 21.8809 36.0599 22.9041C36.3859 24.3966 36.6938 25.8064 36.234 26.9149C35.7484 28.086 34.5067 28.8735 33.1921 29.7071C32.3331 30.2519 31.4447 30.8154 30.7418 31.5182C30.0389 32.2211 29.4755 33.1095 28.9307 33.9687C28.097 35.2833 27.3096 36.5249 26.1385 37.0105C25.0299 37.4703 23.6201 37.1623 22.1276 36.8364C21.1044 36.613 20.0464 36.382 19 36.382C17.9535 36.382 16.8955 36.613 15.8723 36.8365C14.3796 37.1625 12.97 37.4704 11.8614 37.0106C10.6903 36.525 9.90289 35.2833 9.06926 33.9688C8.85098 33.6246 8.62528 33.2687 8.39216 32.9275C8.15325 32.5781 7.67632 32.4883 7.32697 32.7272C6.97748 32.9661 6.88775 33.443 7.12658 33.7923C7.34486 34.1118 7.55364 34.441 7.77474 34.7896C8.69935 36.2477 9.65537 37.7552 11.2742 38.4265C11.8879 38.6809 12.5267 38.7764 13.1775 38.7764C14.1732 38.7764 15.1967 38.5529 16.1993 38.3339C17.143 38.1278 18.1189 37.9147 19 37.9147C19.881 37.9147 20.8569 38.1278 21.8006 38.3339C23.4584 38.6959 25.1729 39.0701 26.7255 38.4264C28.3445 37.7552 29.3006 36.2476 30.2252 34.7896C30.7485 33.9645 31.2426 33.1851 31.8258 32.602C32.4088 32.019 33.1881 31.5247 34.0132 31.0016C35.4711 30.077 36.9787 29.1209 37.65 27.5021C38.294 25.9494 37.9196 24.235 37.5575 22.577C37.3514 21.6334 37.1384 20.6575 37.1384 19.7764Z" fill="#84689B"/>
<path d="M27.3189 17.2884C27.2301 17.0154 26.9961 16.8147 26.7126 16.7688L21.9068 15.9901L19.6811 11.6601C19.5499 11.4048 19.2866 11.2441 18.9995 11.2441C18.7123 11.2441 18.4492 11.4047 18.3179 11.6601L16.0922 15.9901L11.2864 16.7688C11.0029 16.8147 10.7689 17.0153 10.6801 17.2884C10.5914 17.5616 10.6628 17.8615 10.8651 18.0653L14.2953 21.52L13.5508 26.3313C13.5068 26.615 13.6253 26.8996 13.8577 27.0685C14.09 27.2372 14.3971 27.2619 14.6537 27.1325L18.9994 24.9377L23.3451 27.1325C23.4542 27.1876 23.5725 27.2148 23.6905 27.2148C23.8495 27.2148 24.0075 27.1653 24.1411 27.0684C24.3735 26.8997 24.492 26.6151 24.448 26.3312L23.7035 21.52L27.1337 18.0652C27.3363 17.8616 27.4077 17.5616 27.3189 17.2884ZM22.343 20.7146C22.1715 20.8873 22.0923 21.1312 22.1295 21.3717L22.7052 25.092L19.345 23.3949C19.2363 23.3401 19.1179 23.3126 18.9995 23.3126C18.881 23.3126 18.7626 23.34 18.6538 23.3949L15.2935 25.092L15.8692 21.3717C15.9066 21.1312 15.8272 20.8872 15.6558 20.7146L13.0033 18.0432L16.7193 17.4411C16.9596 17.4021 17.1671 17.2515 17.2784 17.0349L18.9994 13.6868L20.7204 17.0349C20.8316 17.2515 21.0392 17.4021 21.2795 17.4411L24.9955 18.0432L22.343 20.7146Z" fill="#84689B"/>
</svg>
