<svg width="43" height="42" viewBox="0 0 43 42" fill="none" xmlns="http://www.w3.org/2000/svg">
<path d="M39.1758 11.8298L33.2783 35.5073C32.8583 37.2748 31.2833 38.4998 29.4633 38.4998H6.46832C3.82582 38.4998 1.93585 35.9097 2.72335 33.3722L10.0908 9.71234C10.5983 8.06734 12.1209 6.92969 13.8359 6.92969H35.3608C37.0233 6.92969 38.4059 7.9447 38.9834 9.3447C39.3159 10.0972 39.3858 10.9548 39.1758 11.8298Z" stroke="#3B1E54" stroke-width="2.5" stroke-miterlimit="10"/>
<path d="M28.8008 38.5H37.1658C39.4233 38.5 41.1908 36.5925 41.0333 34.335L39.3008 10.5" stroke="#3B1E54" stroke-width="2.5" stroke-miterlimit="10" stroke-linecap="round" stroke-linejoin="round"/>
<path d="M17.7402 11.1659L19.5602 3.60596" stroke="#3B1E54" stroke-width="2.5" stroke-miterlimit="10" stroke-linecap="round" stroke-linejoin="round"/>
<path d="M29.4668 11.1819L31.1118 3.58691" stroke="#3B1E54" stroke-width="2.5" stroke-miterlimit="10" stroke-linecap="round" stroke-linejoin="round"/>
<path d="M14.2734 21H28.2734" stroke="#3B1E54" stroke-width="2.5" stroke-miterlimit="10" stroke-linecap="round" stroke-linejoin="round"/>
<path d="M12.5234 28H26.5234" stroke="#3B1E54" stroke-width="2.5" stroke-miterlimit="10" stroke-linecap="round" stroke-linejoin="round"/>
</svg>
