<svg width="43" height="42" viewBox="0 0 43 42" fill="none" xmlns="http://www.w3.org/2000/svg">
<path d="M30.1484 37.1875H12.6484C6.26094 37.1875 2.58594 33.5125 2.58594 27.125V14.875C2.58594 8.4875 6.26094 4.8125 12.6484 4.8125H30.1484C36.5359 4.8125 40.2109 8.4875 40.2109 14.875V27.125C40.2109 33.5125 36.5359 37.1875 30.1484 37.1875ZM12.6484 7.4375C7.64344 7.4375 5.21094 9.87 5.21094 14.875V27.125C5.21094 32.13 7.64344 34.5625 12.6484 34.5625H30.1484C35.1534 34.5625 37.5859 32.13 37.5859 27.125V14.875C37.5859 9.87 35.1534 7.4375 30.1484 7.4375H12.6484Z" fill="#3B1E54"/>
<path d="M21.3984 27.5625C17.7759 27.5625 14.8359 24.6225 14.8359 21C14.8359 17.3775 17.7759 14.4375 21.3984 14.4375C25.0209 14.4375 27.9609 17.3775 27.9609 21C27.9609 24.6225 25.0209 27.5625 21.3984 27.5625ZM21.3984 17.0625C19.2284 17.0625 17.4609 18.83 17.4609 21C17.4609 23.17 19.2284 24.9375 21.3984 24.9375C23.5684 24.9375 25.3359 23.17 25.3359 21C25.3359 18.83 23.5684 17.0625 21.3984 17.0625Z" fill="#3B1E54"/>
<path d="M33.6484 13.5625H28.3984C27.6809 13.5625 27.0859 12.9675 27.0859 12.25C27.0859 11.5325 27.6809 10.9375 28.3984 10.9375H33.6484C34.3659 10.9375 34.9609 11.5325 34.9609 12.25C34.9609 12.9675 34.3659 13.5625 33.6484 13.5625Z" fill="#3B1E54"/>
<path d="M14.3984 31.0625H9.14844C8.43094 31.0625 7.83594 30.4675 7.83594 29.75C7.83594 29.0325 8.43094 28.4375 9.14844 28.4375H14.3984C15.1159 28.4375 15.7109 29.0325 15.7109 29.75C15.7109 30.4675 15.1159 31.0625 14.3984 31.0625Z" fill="#3B1E54"/>
</svg>
