<svg width="25" height="24" viewBox="0 0 25 24" fill="none" xmlns="http://www.w3.org/2000/svg">
<path d="M4.30078 21.25H21.3008C21.7108 21.25 22.0508 21.59 22.0508 22C22.0508 22.41 21.7108 22.75 21.3008 22.75H4.30078C3.89078 22.75 3.55078 22.41 3.55078 22C3.55078 21.59 3.89078 21.25 4.30078 21.25Z" fill="white" stroke="white" stroke-width="1.5"/>
<path d="M19.8008 14.52C19.3908 14.52 19.0508 14.18 19.0508 13.77V5.31L6.33078 18.03C6.18078 18.18 5.99078 18.25 5.80078 18.25C5.61078 18.25 5.42078 18.18 5.27078 18.03C4.98078 17.74 4.98078 17.26 5.27078 16.97L17.9908 4.25H9.53078C9.12078 4.25 8.78078 3.91 8.78078 3.5C8.78078 3.09 9.12078 2.75 9.53078 2.75H19.8008C19.9008 2.75 19.9908 2.77 20.0908 2.81C20.2708 2.88 20.4208 3.03 20.4908 3.21C20.5308 3.31 20.5508 3.4 20.5508 3.5V13.77C20.5508 14.18 20.2108 14.52 19.8008 14.52Z" fill="white" stroke="white" stroke-width="1.5"/>
</svg>
