<svg width="29" height="40" viewBox="0 0 29 40" fill="none" xmlns="http://www.w3.org/2000/svg">
<path d="M21.6174 2.48579C19.3598 1.04038 16.7435 0.276367 14.0509 0.276367C6.30318 0.276367 0 6.57947 0 14.3272C0 22.0749 6.30318 28.378 14.0509 28.378C21.7986 28.378 28.1018 22.0749 28.1018 14.3271C28.1018 11.1598 27.0729 8.16968 25.1265 5.68009C24.8657 5.34655 24.3843 5.28762 24.0507 5.54828C23.7172 5.80893 23.6583 6.29069 23.9189 6.62408C25.6525 8.84159 26.5688 11.5053 26.5688 14.3271C26.5688 21.2296 20.9533 26.8451 14.0508 26.8451C7.14831 26.8451 1.53277 21.2296 1.53277 14.3271C1.53277 7.4246 7.14831 1.80906 14.0508 1.80906C16.4499 1.80906 18.7805 2.48942 20.7909 3.7766C21.1472 4.00475 21.6213 3.90106 21.8496 3.54444C22.0779 3.18797 21.9738 2.71393 21.6174 2.48579Z" fill="#84689B"/>
<path fill-rule="evenodd" clip-rule="evenodd" d="M22.3703 11.839C22.2815 11.5659 22.0475 11.3652 21.764 11.3194L16.9582 10.5407L14.7325 6.21068C14.6013 5.95529 14.338 5.79468 14.0509 5.79468C13.7637 5.79468 13.5006 5.95521 13.3692 6.21068L11.1436 10.5407L6.33774 11.3194C6.0543 11.3652 5.82029 11.5659 5.73145 11.839C5.64276 12.1121 5.71415 12.412 5.91647 12.6158L9.34672 16.0706L8.60216 20.8818C8.55814 21.1655 8.67667 21.4502 8.90905 21.619C9.14136 21.7877 9.44847 21.8124 9.70512 21.6831L14.0508 19.4882L18.3964 21.6831C18.5056 21.7381 18.6239 21.7653 18.7418 21.7653C18.9008 21.7653 19.0589 21.7159 19.1925 21.6189C19.4249 21.4502 19.5433 21.1656 19.4994 20.8817L18.7548 16.0705L22.1851 12.6158C22.3876 12.4121 22.4591 12.1122 22.3703 11.839ZM17.3943 15.2651C17.2229 15.4379 17.1437 15.6817 17.1809 15.9223L17.7566 19.6426L14.3963 17.9454C14.2877 17.8906 14.1693 17.8632 14.0509 17.8632C13.9324 17.8632 13.8139 17.8906 13.7051 17.9454L10.3449 19.6426L10.9206 15.9223C10.9579 15.6817 10.8786 15.4378 10.7071 15.2651L8.05464 12.5937L11.7707 11.9916C12.011 11.9527 12.2185 11.802 12.3298 11.5855L14.0508 8.23737L15.7718 11.5855C15.883 11.802 16.0906 11.9527 16.3309 11.9916L20.0469 12.5937L17.3943 15.2651Z" fill="#84689B"/>
<path d="M6 37.7017V26.2359C6.63077 26.6784 7.29941 27.0705 8 27.4061V37.7017L13.3173 33.8024C14.0213 33.2861 14.9787 33.2861 15.6827 33.8024L21 37.7017V26.9351C21.7073 26.5309 22.3762 26.0671 23 25.5505V37.7017C23 39.3399 21.1383 40.2833 19.8173 39.3145L14.5 35.4152L9.18273 39.3145C7.86167 40.2833 6 39.3399 6 37.7017Z" fill="#84689B"/>
</svg>
