<svg width="45" height="36" viewBox="0 0 45 36" fill="none" xmlns="http://www.w3.org/2000/svg">
<path fill-rule="evenodd" clip-rule="evenodd" d="M24.3178 15.9312L30.8356 15.8183C28.8645 14.0906 26.2342 13.0354 23.3461 13.0354C20.3132 13.0354 17.5651 14.1987 15.5656 16.0828L13.0739 16.1259C15.2723 13.3794 18.6542 11.5407 22.4936 11.3021C22.7754 11.2846 23.0597 11.2757 23.3461 11.2757C23.59 11.2757 23.8325 11.2822 24.0731 11.2949C27.7978 11.492 31.1015 13.1944 33.3265 15.7747L35.5947 15.7354C32.9433 11.9836 28.4468 9.51607 23.3461 9.51607C18.2511 9.51607 13.7591 11.978 11.1065 15.7226C11.0034 15.8683 10.903 16.0158 10.8055 16.1652C10.2632 16.9962 9.16548 17.3894 8.23706 16.9723L1.05881 13.7475C-0.352934 13.1132 -0.352936 11.1979 1.0588 10.5637L22.1712 1.0789C22.6793 0.850659 23.2687 0.855527 23.7725 1.09213L43.97 10.5769C45.3433 11.2218 45.3433 13.0893 43.97 13.7342L38.1536 16.4656C37.2473 16.8912 36.1595 16.5342 35.5947 15.7354L33.3265 15.7747C35.1601 17.9015 36.2614 20.6251 36.2614 23.5934C36.2614 30.3963 30.479 35.9111 23.3461 35.9111C16.2131 35.9111 10.4307 30.3963 10.4307 23.5934C10.4307 20.7858 11.4156 18.1976 13.0739 16.1259L15.5656 16.0828C15.5656 16.0828 15.5657 16.0828 15.5656 16.0828L23.1948 15.9507V14.7951H24.3178V15.9312ZM34.4164 23.5934C34.4164 29.4245 29.46 34.1515 23.3461 34.1515C17.2321 34.1515 12.2758 29.4245 12.2758 23.5934C12.2758 20.655 13.5344 17.9969 15.5656 16.0828L23.1948 15.9507V16.6739C22.805 16.7225 22.443 16.7954 22.1089 16.8927C20.3393 17.4154 19.4546 18.5854 19.4546 20.4028C19.4546 21.588 19.9031 22.4967 20.8003 23.1288C21.221 23.4266 22.0192 23.7518 23.1948 24.1043V29.1826C22.2976 29.0671 21.6263 28.7115 21.1808 28.1159C21.1561 28.0672 21.1313 28.0247 21.1066 27.9882C20.9271 27.6904 20.7941 27.0795 20.7075 26.1557H19.204C19.1978 26.2651 19.1947 26.3745 19.1947 26.4839C19.1947 27.0735 19.2813 27.6114 19.4546 28.0976C19.999 29.5503 21.2458 30.3404 23.1948 30.4681V32.3918H24.3178V30.4681C25.2706 30.3891 26.0564 30.1703 26.6751 29.8116C26.8422 29.7144 26.9938 29.605 27.1299 29.4834C27.9899 28.7237 28.42 27.6965 28.42 26.4018C28.42 25.0829 27.8817 24.1226 26.8051 23.5208C26.4153 23.3081 25.5862 23.0103 24.3178 22.6274V17.9776C24.4044 17.9776 24.4879 17.9837 24.5684 17.9958C24.8715 18.0445 25.15 18.1387 25.4037 18.2785C26.1276 18.6979 26.4957 19.3877 26.5081 20.3481H28.0023V20.1657C27.9776 19.5762 27.8445 19.0474 27.6032 18.5793C27.0093 17.4184 25.9141 16.7833 24.3178 16.6739V15.9312L30.8356 15.8183C33.0368 17.7481 34.4164 20.5171 34.4164 23.5934ZM30.8356 15.8183L33.3265 15.7747C33.3263 15.7746 33.3266 15.7749 33.3265 15.7747L30.8356 15.8183C30.8357 15.8185 30.8354 15.8182 30.8356 15.8183ZM1.84505 12.1556L22.9575 2.6708L43.1549 12.1556L37.3386 14.8869C37.3354 14.8871 37.3207 14.8875 37.2964 14.8803C37.2423 14.8642 37.1739 14.8217 37.1246 14.7519C34.145 10.5356 29.0861 7.75639 23.3461 7.75639C17.3893 7.75639 12.1668 10.749 9.23905 15.2354C9.19152 15.3082 9.12265 15.3542 9.06701 15.3725C9.042 15.3806 9.02742 15.3807 9.02416 15.3806C9.02288 15.3806 9.02531 15.3811 9.02416 15.3806L1.84505 12.1556ZM23.1948 17.9958V22.4815C21.7284 22.0925 20.9952 21.3388 20.9952 20.2204C20.9952 20.0199 21.0138 19.8314 21.0509 19.6552C21.2674 18.7131 21.9821 18.16 23.1948 17.9958ZM24.3178 29.1826V24.2684C25.0541 24.4812 25.6047 24.7 25.9698 24.9249C26.5638 25.2956 26.8608 25.8609 26.8608 26.6207C26.8608 27.3683 26.5947 27.9913 26.0626 28.4897C25.6728 28.8604 25.0912 29.0914 24.3178 29.1826Z" fill="#39284A"/>
<path d="M13.0739 16.1259C13.0739 16.1259 13.0739 16.1259 13.0739 16.1259V16.1259Z" fill="#39284A"/>
</svg>
