<svg width="45" height="42" viewBox="0 0 45 42" fill="none" xmlns="http://www.w3.org/2000/svg">
<path fill-rule="evenodd" clip-rule="evenodd" d="M40.5581 16.4757C40.352 17.4194 40.1389 18.3953 40.1389 19.2764C40.1389 20.1574 40.352 21.1333 40.5581 22.0769C40.9201 23.7348 41.2945 25.4495 40.6505 27.002C40.2007 28.0868 39.3754 28.874 38.4411 29.5535L36.8173 28.8074C37.8864 28.1107 38.8269 27.398 39.2345 26.4149C39.6943 25.3064 39.3864 23.8967 39.0605 22.4043C38.837 21.3811 38.6059 20.3229 38.6059 19.2764C38.6059 18.2301 38.8368 17.1723 39.0602 16.1493C39.3862 14.6567 39.6942 13.2464 39.2344 12.1379C38.7488 10.9668 37.5072 10.1793 36.1926 9.34568C35.3334 8.80084 34.445 8.23744 33.7421 7.53451C33.0393 6.83159 32.4758 5.94326 31.931 5.08418C31.0974 3.76962 30.3099 2.52794 29.1388 2.04233C28.0306 1.58252 26.6208 1.8904 25.1285 2.21633C24.1053 2.4398 23.0468 2.67096 22.0003 2.67096C20.954 2.67096 19.8963 2.44001 18.8733 2.21665L18.8719 2.21634C17.3796 1.89051 15.9702 1.58277 14.8618 2.0424C13.6907 2.52801 12.9033 3.76969 12.0696 5.08426C11.5248 5.94349 10.9614 6.83189 10.2585 7.53474C9.55554 8.23759 8.66737 8.80084 7.80814 9.3456C6.49357 10.1792 5.25189 10.9667 4.76628 12.1378C4.30652 13.2463 4.61439 14.656 4.94034 16.1484C5.16382 17.1716 5.39491 18.2298 5.39491 19.2763C5.39491 20.3226 5.16396 21.3804 4.9406 22.4034C4.61463 23.8959 4.30664 25.3063 4.76635 26.4148C5.19537 27.4494 6.21451 28.1846 7.35267 28.9167L5.73659 29.6799C4.7304 28.9714 3.82843 28.1547 3.35048 27.002C2.70656 25.4492 3.08092 23.7348 3.44296 22.0769C3.64906 21.1332 3.86215 20.1573 3.86215 19.2763C3.86215 18.3957 3.64923 17.4205 3.44331 16.4773L3.44296 16.4757C3.08096 14.8179 2.70656 13.1032 3.35048 11.5506C4.02171 9.93197 5.52904 8.976 6.98676 8.05148C7.81185 7.52831 8.59174 7.03369 9.17473 6.4507C9.75739 5.8681 10.2512 5.08952 10.7741 4.26516L10.7753 4.26317C11.6999 2.80515 12.656 1.29761 14.275 0.626305C15.8276 -0.0175425 17.542 0.356669 19.1999 0.718856C20.1436 0.924962 21.1195 1.13804 22.0005 1.13804C22.8816 1.13804 23.8575 0.924962 24.8012 0.718782C26.4589 0.356795 28.1736 -0.0176661 29.7263 0.626305C31.3449 1.29753 32.3009 2.80486 33.2254 4.26258C33.7486 5.08767 34.2432 5.86756 34.8262 6.45055C35.4088 7.03321 36.1874 7.52703 37.0117 8.04987L37.0137 8.05115C38.4718 8.97577 39.9794 9.93186 40.6506 11.5508C41.2945 13.1034 40.9201 14.8179 40.5581 16.4757Z" fill="#84689B"/>
<path d="M30.3199 13.7882C30.2311 13.5152 29.9971 13.3145 29.7136 13.2686L24.9078 12.4899L22.6821 8.1599C22.5509 7.90451 22.2876 7.7439 22.0005 7.7439C21.7133 7.7439 21.4502 7.90444 21.3189 8.1599L19.0932 12.4899L14.2874 13.2686C14.0039 13.3145 13.7699 13.5151 13.6811 13.7882C13.5924 14.0613 13.6638 14.3612 13.8661 14.5651L17.2964 18.0198L16.5518 22.831C16.5078 23.1148 16.6263 23.3994 16.8587 23.5682C17.091 23.7369 17.3981 23.7617 17.6548 23.6323L22.0004 21.4374L26.3461 23.6323C26.4552 23.6874 26.5736 23.7145 26.6915 23.7145C26.8505 23.7145 27.0085 23.6651 27.1421 23.5682C27.3745 23.3995 27.493 23.1148 27.449 22.8309L26.7045 18.0197L30.1347 14.565C30.3373 14.3613 30.4087 14.0614 30.3199 13.7882ZM25.344 17.2144C25.1725 17.3871 25.0933 17.631 25.1305 17.8715L25.7062 21.5918L22.346 19.8946C22.2373 19.8399 22.1189 19.8124 22.0005 19.8124C21.882 19.8124 21.7636 19.8398 21.6548 19.8946L18.2945 21.5918L18.8702 17.8715C18.9076 17.631 18.8282 17.387 18.6568 17.2144L16.0043 14.5429L19.7203 13.9409C19.9606 13.9019 20.1681 13.7512 20.2794 13.5347L22.0004 10.1866L23.7214 13.5347C23.8327 13.7512 24.0402 13.9019 24.2805 13.9409L27.9965 14.5429L25.344 17.2144Z" fill="#84689B"/>
<path fill-rule="evenodd" clip-rule="evenodd" d="M20.8925 24.0213C21.9173 23.5714 23.0837 23.5714 24.1085 24.0213L43.8045 32.6684C44.8159 33.1124 45.2758 34.2923 44.8318 35.3037C44.3878 36.3151 43.2079 36.775 42.1965 36.331L22.5005 27.6839L2.80449 36.331C1.79309 36.775 0.613244 36.3151 0.169217 35.3037C-0.27481 34.2923 0.18513 33.1124 1.19652 32.6684L20.8925 24.0213Z" fill="#84689B"/>
<path fill-rule="evenodd" clip-rule="evenodd" d="M16.0005 28.4997V39.5263L21.3178 35.627C22.0218 35.1107 22.9793 35.1107 23.6832 35.627L29.0005 39.5263V28.4997H31.0005V39.5263C31.0005 41.1645 29.1388 42.1079 27.8178 41.1391L22.5005 37.2398L17.1832 41.1391C15.8622 42.1079 14.0005 41.1645 14.0005 39.5263V28.4997H16.0005Z" fill="#84689B"/>
</svg>
