<svg width="17" height="17" viewBox="0 0 17 17" fill="none" xmlns="http://www.w3.org/2000/svg">
<path d="M8.18764 4.78105C5.92127 4.78105 4.09321 6.60911 4.09321 8.87548C4.09321 11.1419 5.92127 12.9699 8.18764 12.9699C10.454 12.9699 12.2821 11.1419 12.2821 8.87548C12.2821 6.60911 10.454 4.78105 8.18764 4.78105ZM8.18764 11.5374C6.72305 11.5374 5.52572 10.3436 5.52572 8.87548C5.52572 7.40733 6.71949 6.21356 8.18764 6.21356C9.65579 6.21356 10.8496 7.40733 10.8496 8.87548C10.8496 10.3436 9.65223 11.5374 8.18764 11.5374ZM13.4046 4.61356C13.4046 5.14452 12.9769 5.56858 12.4496 5.56858C12.2607 5.56858 12.076 5.51257 11.919 5.40763C11.7619 5.30269 11.6395 5.15354 11.5672 4.97903C11.495 4.80453 11.476 4.61251 11.5129 4.42725C11.5497 4.242 11.6407 4.07183 11.7743 3.93827C11.9078 3.80471 12.078 3.71375 12.2632 3.6769C12.4485 3.64005 12.6405 3.65897 12.815 3.73125C12.9895 3.80353 13.1387 3.92594 13.2436 4.08299C13.3486 4.24004 13.4046 4.42468 13.4046 4.61356ZM16.1164 5.58283C16.0558 4.30354 15.7636 3.17036 14.8264 2.23673C13.8928 1.3031 12.7596 1.01089 11.4803 0.94675C10.1618 0.871917 6.20991 0.871917 4.89142 0.94675C3.6157 1.00733 2.48251 1.29953 1.54532 2.23316C0.608127 3.16679 0.319486 4.29998 0.255343 5.57927C0.180511 6.89775 0.180511 10.8496 0.255343 12.1681C0.315923 13.4474 0.608127 14.5806 1.54532 15.5142C2.48251 16.4479 3.61214 16.7401 4.89142 16.8042C6.20991 16.879 10.1618 16.879 11.4803 16.8042C12.7596 16.7436 13.8928 16.4514 14.8264 15.5142C15.76 14.5806 16.0522 13.4474 16.1164 12.1681C16.1912 10.8496 16.1912 6.90132 16.1164 5.58283ZM14.413 13.5828C14.2775 13.9264 14.0728 14.2384 13.8117 14.4995C13.5505 14.7607 13.2385 14.9653 12.895 15.1009C11.8438 15.5178 9.34933 15.4216 8.18764 15.4216C7.02594 15.4216 4.52795 15.5142 3.48029 15.1009C3.13675 14.9653 2.82473 14.7607 2.56359 14.4995C2.30245 14.2384 2.09777 13.9264 1.96225 13.5828C1.54532 12.5316 1.64154 10.0372 1.64154 8.87548C1.64154 7.71379 1.54888 5.21579 1.96225 4.16813C2.09777 3.82459 2.30245 3.51257 2.56359 3.25143C2.82473 2.99029 3.13675 2.78561 3.48029 2.65009C4.53151 2.23316 7.02594 2.32938 8.18764 2.32938C9.34933 2.32938 11.8473 2.23673 12.895 2.65009C13.2385 2.78561 13.5505 2.99029 13.8117 3.25143C14.0728 3.51257 14.2775 3.82459 14.413 4.16813C14.83 5.21936 14.7337 7.71379 14.7337 8.87548C14.7337 10.0372 14.83 12.5352 14.413 13.5828Z" fill="white"/>
</svg>
