<svg width="30" height="35" viewBox="0 0 30 35" fill="none" xmlns="http://www.w3.org/2000/svg">
<path fill-rule="evenodd" clip-rule="evenodd" d="M15 4.09266C11.7583 4.09266 9.13043 6.71051 9.13043 9.9398C9.13043 13.1691 11.7583 15.7869 15 15.7869C18.2417 15.7869 20.8696 13.1691 20.8696 9.9398C20.8696 6.71051 18.2417 4.09266 15 4.09266ZM6.95652 9.9398C6.95652 5.51448 10.5577 1.92706 15 1.92706C19.4423 1.92706 23.0435 5.51448 23.0435 9.9398C23.0435 14.3651 19.4423 17.9525 15 17.9525C10.5577 17.9525 6.95652 14.3651 6.95652 9.9398ZM2.35588 24.1975C3.86432 22.6948 5.91021 21.8506 8.04348 21.8506H21.9565C24.0898 21.8506 26.1357 22.6948 27.6441 24.1975C29.1526 25.7002 30 27.7383 30 29.8634V33.3283C30 33.9263 29.5134 34.4111 28.913 34.4111C28.3127 34.4111 27.8261 33.9263 27.8261 33.3283V29.8634C27.8261 28.3126 27.2077 26.8254 26.1069 25.7288C25.0062 24.6323 23.5132 24.0162 21.9565 24.0162H8.04348C6.48677 24.0162 4.99383 24.6323 3.89307 25.7288C2.79231 26.8254 2.17391 28.3126 2.17391 29.8634V33.3283C2.17391 33.9263 1.68727 34.4111 1.08696 34.4111C0.486647 34.4111 0 33.9263 0 33.3283V29.8634C0 27.7383 0.847435 25.7002 2.35588 24.1975Z" fill="#39284A"/>
<path d="M3.76467 7.34804C2.98066 7.05575 2.98066 5.95101 3.76467 5.65872L14.7397 1.56709C14.9443 1.49081 15.1697 1.49081 15.3744 1.56709L26.3494 5.65872C27.1334 5.95101 27.1334 7.05575 26.3494 7.34803L15.3744 11.4397C15.1697 11.5159 14.9443 11.5159 14.7397 11.4397L3.76467 7.34804Z" fill="white"/>
<path fill-rule="evenodd" clip-rule="evenodd" d="M2.49464 6.4344L14.7813 11.0794L27.0681 6.4344L14.7813 1.78937L2.49464 6.4344ZM1.34909 5.41556C0.416502 5.76812 0.416502 7.10068 1.34909 7.45325L14.4039 12.3887C14.6473 12.4807 14.9154 12.4807 15.1588 12.3887L28.2136 7.45324C29.1462 7.10068 29.1462 5.76812 28.2136 5.41555L15.1588 0.480143C14.9154 0.388129 14.6473 0.388129 14.4039 0.480144L1.34909 5.41556Z" fill="#39284A"/>
<path d="M0.217391 10.2419C0.217391 9.64109 0.699531 9.15404 1.29428 9.15404Lnan nanL1.29428 9.15404C1.88903 9.15404 2.37117 9.64109 2.37117 10.2419V15.1372H0.217391V10.2419Z" fill="#39284A"/>
<path fill-rule="evenodd" clip-rule="evenodd" d="M1.5635 6.70636V11.8737H1.02506V6.70636H1.5635Z" fill="#39284A"/>
</svg>
