<svg width="17" height="14" viewBox="0 0 17 14" fill="none" xmlns="http://www.w3.org/2000/svg">
<path d="M14.8553 3.61668C14.8653 3.75855 14.8653 3.90105 14.8653 4.04293C14.8653 8.37793 11.5659 13.3729 5.53562 13.3729C3.67781 13.3729 1.95187 12.8348 0.5 11.9011C0.764062 11.9314 1.01781 11.9417 1.29188 11.9417C2.82469 11.9417 4.23594 11.4236 5.36281 10.5404C4.67859 10.5279 4.01536 10.302 3.46575 9.89421C2.91615 9.48646 2.50761 8.91724 2.29719 8.26605C2.50199 8.29838 2.70892 8.3153 2.91625 8.31668C3.21062 8.31668 3.505 8.27605 3.77906 8.20512C3.03661 8.05484 2.36907 7.6522 1.88982 7.06557C1.41057 6.47894 1.14916 5.7445 1.15 4.98699V4.94637C1.60437 5.19995 2.11223 5.34257 2.63219 5.36262C2.18215 5.0633 1.81313 4.65732 1.55802 4.18084C1.3029 3.70435 1.1696 3.17216 1.17 2.63168C1.17 2.02262 1.3325 1.46418 1.61688 0.976992C2.44054 1.99074 3.46807 2.82006 4.63285 3.41117C5.79762 4.00227 7.07363 4.34197 8.37813 4.40824C8.3275 4.16449 8.29688 3.91105 8.29688 3.6573C8.29688 1.85012 9.75875 0.37793 11.5763 0.37793C12.52 0.37793 13.3731 0.773867 13.9722 1.41355C14.7066 1.27213 15.4108 1.00419 16.0534 0.62168C15.8089 1.37954 15.2962 2.02212 14.6116 2.42887C15.2716 2.35762 15.9113 2.1748 16.5 1.92105C16.0511 2.57475 15.495 3.14801 14.8553 3.61668Z" fill="white"/>
</svg>
