<svg width="17" height="17" viewBox="0 0 17 17" fill="none" xmlns="http://www.w3.org/2000/svg">
<path d="M16.8726 1.27324V15.4737C16.8726 15.9619 16.477 16.3539 15.9924 16.3539H11.9229V10.1748H13.9968L14.3069 7.76589H11.9193V6.22647C11.9193 5.52803 12.1118 5.05409 13.1131 5.05409H14.3888V2.89819C14.1679 2.86968 13.4124 2.80198 12.5287 2.80198C10.6899 2.80198 9.42847 3.92447 9.42847 5.98772V7.76589H7.3474V10.1748H9.42847V16.3574H1.78838C1.30375 16.3574 0.908203 15.9619 0.908203 15.4773V1.27324C0.908203 0.788612 1.30375 0.393066 1.78838 0.393066H15.9888C16.477 0.393066 16.8726 0.788612 16.8726 1.27324Z" fill="white"/>
</svg>
