<svg width="17" height="14" viewBox="0 0 17 14" fill="none" xmlns="http://www.w3.org/2000/svg">
<path d="M16.1898 2.87549C16.5898 4.27549 16.5898 7.27549 16.5898 7.27549C16.5898 7.27549 16.5898 10.2755 16.1898 11.6755C15.9898 12.4755 15.3898 13.0755 14.6898 13.2755C13.2898 13.6755 8.58984 13.6755 8.58984 13.6755C8.58984 13.6755 3.88984 13.6755 2.58984 13.2755C1.78984 13.0755 1.18984 12.4755 0.989844 11.6755C0.589844 10.2755 0.589844 7.27549 0.589844 7.27549C0.589844 7.27549 0.589844 4.27549 0.989844 2.87549C1.18984 2.07549 1.78984 1.47549 2.48984 1.27549C3.88984 0.875488 8.58984 0.875488 8.58984 0.875488C8.58984 0.875488 13.2898 0.875488 14.5898 1.27549C15.3898 1.47549 15.9898 2.07549 16.1898 2.87549ZM6.98984 10.0755L11.7898 7.27549L6.98984 4.47549V10.0755Z" fill="white"/>
</svg>
